<svg xmlns="http://www.w3.org/2000/svg" viewBox="0 0 160 160" role="img" aria-label="Blue Earth">
  <defs>
    <radialGradient id="ocean" cx="34%" cy="27%" r="72%">
      <stop offset="0" stop-color="#79d9f2"/>
      <stop offset="0.46" stop-color="#238bc7"/>
      <stop offset="0.78" stop-color="#0f568f"/>
      <stop offset="1" stop-color="#062c58"/>
    </radialGradient>
    <linearGradient id="land" x1="0" y1="0" x2="1" y2="1">
      <stop offset="0" stop-color="#b8d87b"/>
      <stop offset="0.58" stop-color="#71ac61"/>
      <stop offset="1" stop-color="#3f784c"/>
    </linearGradient>
    <radialGradient id="shine" cx="28%" cy="20%" r="55%">
      <stop offset="0" stop-color="#fff" stop-opacity="0.55"/>
      <stop offset="0.35" stop-color="#fff" stop-opacity="0.12"/>
      <stop offset="1" stop-color="#fff" stop-opacity="0"/>
    </radialGradient>
    <filter id="shadow" x="-30%" y="-30%" width="160%" height="160%">
      <feDropShadow dx="0" dy="3" stdDeviation="4" flood-color="#45b4ef" flood-opacity="0.42"/>
    </filter>
    <clipPath id="globe"><circle cx="80" cy="80" r="72"/></clipPath>
  </defs>
  <circle cx="80" cy="80" r="73.5" fill="#0b376d" opacity="0.72" filter="url(#shadow)"/>
  <circle cx="80" cy="80" r="72" fill="url(#ocean)" stroke="#9cddf3" stroke-width="1.4"/>
  <g clip-path="url(#globe)" fill="url(#land)" stroke="#315f45" stroke-width="0.7" stroke-linejoin="round">
    <path d="M22 45l14-14 18-8 18 4 7 9-7 9-10 3-4 10-10 5-5 13-9-1-7-11-11-5z"/>
    <path d="M49 74l13 4 8 11-2 12-8 12-5 18-8 5-5-16-8-15 4-14z"/>
    <path d="M82 33l13-9 16 1 7 7 19 5 10 11-8 9-16-1-8 7-10-3-7 8-11-6-10-12z"/>
    <path d="M91 70l16-4 14 8 1 13-9 8-4 19-10 11-9-13-8-16 2-14z"/>
    <path d="M125 111l13-3 10 8-1 10-9 7-14-5-4-9z"/>
    <path d="M73 25l7-7 9 2 2 7-8 5z"/>
  </g>
  <circle cx="80" cy="80" r="72" fill="url(#shine)"/>
  <path d="M31 113c23 21 66 29 99 2" fill="none" stroke="#d9f4ff" stroke-opacity="0.18" stroke-width="1"/>
</svg>
